#define bullet_width 14
#define bullet_height 14
static unsigned char bullet_bits[] = {
   0x00, 0x00, 0x00, 0x00, 0x40, 0x00, 0xc0, 0x00, 0xc0, 0x01, 0xc0, 0x03,
   0xc0, 0x07, 0xc0, 0x07, 0xc0, 0x03, 0xc0, 0x01, 0xc0, 0x00, 0x40, 0x00,
   0x00, 0x00, 0x00, 0x00 };
