#define bullet_width 14
#define bullet_height 14
static unsigned char bullet_bits[] = {
   0x00, 0x00, 0x00, 0x00, 0x00, 0x00, 0x00, 0x07, 0x80, 0x07, 0xc0, 0x07,
   0xe0, 0x03, 0xf0, 0x01, 0xf8, 0x00, 0x78, 0x00, 0x38, 0x00, 0x00, 0x00,
   0x00, 0x00, 0x00, 0x00 };
