#define shade_width 14
#define shade_height 14
static unsigned char shade_bits[] = {
   0x00, 0x00, 0x00, 0x00, 0xf8, 0x03, 0xfc, 0x07, 0xfc, 0x07, 0xfc, 0x07,
   0xfc, 0x07, 0xfc, 0x07, 0xfc, 0x07, 0xfc, 0x07, 0x1c, 0x07, 0x0c, 0x06,
   0x00, 0x00, 0x00, 0x00 };
