#define close_width 14
#define close_height 14
static unsigned char close_bits[] = {
   0x00, 0x00, 0x00, 0x00, 0x78, 0x0f, 0xfc, 0x1f, 0xfc, 0x1f, 0xfc, 0x1f,
   0xfc, 0x0f, 0xf8, 0x0f, 0xf0, 0x07, 0xe0, 0x03, 0xc0, 0x01, 0x00, 0x00,
   0x00, 0x00, 0x00, 0x00 };
