#define shade_width 14
#define shade_height 14
static unsigned char shade_bits[] = {
   0x00, 0x00, 0x00, 0x00, 0xe0, 0x03, 0xf0, 0x07, 0xf0, 0x07, 0xf0, 0x07,
   0xf0, 0x07, 0xf0, 0x07, 0xf0, 0x07, 0xf0, 0x07, 0x30, 0x06, 0x00, 0x00,
   0x00, 0x00, 0x00, 0x00 };
