#define max_disabled_width 14
#define max_disabled_height 14
static unsigned char max_disabled_bits[] = {
   0x00, 0x00, 0x00, 0x00, 0xf0, 0x03, 0xf8, 0x07, 0x1c, 0x0e, 0x0c, 0x0c,
   0x0c, 0x0c, 0x0c, 0x0c, 0x0c, 0x0c, 0x1c, 0x0e, 0xf8, 0x07, 0xf0, 0x03,
   0x00, 0x00, 0x00, 0x00 };
